<svg width="40" height="40" viewBox="0 0 40 40" fill="none" xmlns="http://www.w3.org/2000/svg">
<path d="M18.3668 1.39412C4.76058 5.17006 19.489 12.7618 14.4314 15.486C11.8692 16.8657 7.71027 16.6616 9.38003 9.71443C1.04503 16.4897 3.46871 31.9266 13.1373 37.0191C11.016 35.0133 9.69003 32.1746 9.69003 29.0308C9.69003 22.9665 14.6219 18.0347 20.6861 18.0347C26.7506 18.0347 31.6822 22.9666 31.6822 29.0308C31.6822 31.9644 30.5283 34.633 28.6502 36.6066C40.4241 30.5941 38.252 14.0695 30.408 9.84623C32.2799 14.2348 31.3106 17.6087 28.9846 19.49C30.1282 4.51271 13.6325 10.548 18.3668 1.39412ZM20.686 19.4946C15.4108 19.4946 11.1501 23.7555 11.1501 29.0308C11.1501 34.3062 15.411 38.5669 20.686 38.5669C25.9613 38.5669 30.2223 34.3062 30.2223 29.0308C30.2223 23.7557 25.9614 19.4947 20.6861 19.4947L20.686 19.4946ZM20.686 23.6963C24.3566 23.6963 27.3488 26.6885 27.3488 30.359C27.3488 34.0294 24.3566 37.0191 20.6861 37.0191C17.0158 37.0191 14.026 34.0294 14.026 30.359C14.026 26.6885 17.0158 23.6965 20.6861 23.6965L20.686 23.6963ZM20.686 25.1563C17.8048 25.1563 15.486 27.4776 15.486 30.359C15.486 33.2402 17.8048 35.5591 20.686 35.5591C23.5675 35.5591 25.8888 33.2404 25.8888 30.359C25.8888 27.4777 23.5675 25.1563 20.6861 25.1563H20.686ZM20.686 26.6138C22.7525 26.6138 24.4264 28.2901 24.4264 30.3565C24.4264 32.4229 22.7525 34.0967 20.6861 34.0967C18.62 34.0967 16.9435 32.4229 16.9435 30.3565C16.9435 29.6994 17.1146 29.0819 17.4123 28.545C17.556 29.5086 18.3862 30.2491 19.3899 30.2491C20.4946 30.2491 21.3893 29.3518 21.3893 28.2472C21.3893 27.5737 21.0573 26.9787 20.5471 26.6163C20.5932 26.6146 20.6397 26.6138 20.6862 26.6138H20.686Z" fill="white"/>
</svg>
